# xmcd
#
# Track frame offsets:
#	150
#	10766
#	17679
#	24638
#	35790
#	45199
#	59007
#	67712
#	80788
#	94481
#
# Disc length: 1355 seconds
# Revision: 0
# Processed by: cddbd v1.5.2PL0 Copyright (c) Steve Scherf et al.
# Submitted via: dBpowerAMP V12.0
#
DISCID=7b05490a
DTITLE=Floyd Tillman - I'll Keep on Lovin' You [51 West]
DYEAR=1979
DGENRE=Country
TTITLE0=Cold War
TTITLE1=The Took the Stars out of Heaven
TTITLE2=Daisey Mae
TTITLE3=It Makes No Defference Now
TTITLE4=Slippin' Around
TTITLE5=Paper Flowers
TTITLE6=Gotta Have Something I Aint' Got
TTITLE7=I love You So Much It Hurts Me
TTITLE8=Small Little Town
TTITLE9=I'll Keep On Lovin' You
EXTD=
EXTT0=
EXTT1=
EXTT2=
EXTT3=
EXTT4=
EXTT5=
EXTT6=
EXTT7=
EXTT8=
EXTT9=
PLAYORDER=
